<svg width="292" height="86" viewBox="0 0 292 86" fill="none" xmlns="http://www.w3.org/2000/svg">
<g clip-path="url(#clip0_115_615)">
<path d="M21.5341 57.4572L16.2234 60.7006C9.59389 45.9086 12.135 28.5842 22.8867 16.3984C24.1381 14.9809 25.4738 13.6679 26.8969 12.4024C38.4844 2.08704 54.9348 -0.760179 69.2536 5.35043C74.9507 7.78146 80.312 11.5655 84.31 16.4659C80.2078 13.0398 76.3279 9.88846 71.4405 8.02411C67.9532 6.54061 64.4183 5.762 60.6596 5.27825C49.9416 4.47507 39.7619 7.88589 31.746 15.0515C29.5254 17.0357 27.6438 19.2256 25.9477 21.6751C18.878 31.8845 17.2172 44.8382 21.2596 56.5634C21.3792 56.9105 21.5065 57.1224 21.5326 57.4572H21.5341Z" fill="#04B5D9"/>
<path d="M22.9404 60.6454L17.2448 62.7877L7.68158 66.8635C10.3806 64.523 13.2284 62.5312 16.2235 60.7022L21.5341 57.4587L22.3623 57.0932C27.2098 54.4334 32.1371 52.1068 37.411 50.3837C43.5989 48.3627 51.2666 46.7564 57.4836 48.5439C58.9221 48.957 60.2517 49.5483 61.3712 50.4743C64.5763 53.1234 63.8647 57.1025 61.4433 60.3275C59.6214 62.7539 57.4162 64.7457 54.9272 66.5379C51.2881 69.1594 47.4527 71.443 43.1465 73.1522C46.0081 70.8056 48.9341 68.9705 51.2988 66.2876C52.5855 64.8286 53.7694 63.3697 54.369 61.5484C54.9977 59.6379 54.2647 57.8027 52.4843 56.9212C50.7038 56.0397 48.9004 55.7341 46.9328 55.6773C39.8769 55.4761 29.6482 58.1237 22.9404 60.6469V60.6454Z" fill="#045275"/>
<path d="M50.9446 41.2278C42.5653 41.6731 33.1922 43.8554 26.647 49.2488L25.1165 50.6571C27.5549 44.0428 32.6064 38.9503 39.0626 36.1922C42.9302 34.5398 46.9374 33.6122 51.1301 33.3956L56.8395 33.1008C61.1488 32.8781 65.2879 32.144 69.3058 30.5699C73.1458 29.0649 76.357 26.7138 78.9303 23.3935C78.8874 24.4332 78.3691 25.1796 77.9734 26.038C74.2576 34.2142 68.0651 39.1991 59.1092 40.6012C56.358 41.0328 53.728 41.0819 50.9446 41.2293V41.2278Z" fill="#04B5D9"/>
<path d="M22.9404 60.6454C27.0503 68.6956 33.1646 74.969 41.4457 78.7668C48.7976 82.1146 56.9929 83.0453 64.8906 81.4604C72.0324 80.0276 78.027 76.6598 83.6552 71.9574C77.797 78.667 69.4668 82.9731 60.8758 84.5487C52.2849 86.1244 43.5559 84.7883 35.7946 81.0274C27.8278 77.0191 21.2887 70.7028 17.2432 62.7877L22.9388 60.6454H22.9404Z" fill="#04B5D9"/>
<path d="M86.3266 52.9499L79.3183 52.9069C78.6573 52.9023 78.346 52.3679 78.3368 51.8258C78.3276 51.2836 78.6129 50.7031 79.2999 50.7031L87.4047 50.6909C88.0688 50.6909 88.5932 51.1193 88.5886 51.792L88.5441 58.457C88.5395 59.062 87.9292 59.6118 87.5182 59.9927C85.5277 61.8355 83.0433 62.5358 80.3504 62.6955C75.3265 62.995 70.6599 60.2031 68.8748 55.4393C67.2999 51.233 68.266 46.5613 71.261 43.281C75.8417 38.2639 84.2088 38.5464 88.1071 44.1364C88.4889 44.6831 88.2022 45.4356 87.7482 45.6936C86.4033 46.46 85.7822 44.0858 83.5248 42.9109C79.0438 40.5797 73.6258 42.4425 71.4159 46.9683C69.6048 50.6755 70.2167 55.1153 73.2056 57.984C75.4722 60.1585 78.5117 60.8803 81.5696 60.349C83.3853 60.0326 85.0645 59.383 86.299 57.9886L86.3297 52.9514L86.3266 52.9499Z" fill="#045275"/>
<path d="M61.109 28.3785C64.7144 28.3785 67.6373 25.4515 67.6373 21.8409C67.6373 18.2303 64.7144 15.3034 61.109 15.3034C57.5035 15.3034 54.5806 18.2303 54.5806 21.8409C54.5806 25.4515 57.5035 28.3785 61.109 28.3785Z" fill="#04B5D9"/>
<path d="M278.474 59.4967C280.037 58.7058 281.097 57.2944 281.338 55.8509C281.643 54.0203 281.253 52.2895 279.922 51.0948C278.321 49.6558 276.074 49.3318 273.967 49.9061L273.954 69.3406C273.954 69.9687 273.317 70.1775 272.888 70.1944C272.458 70.2113 271.756 70.0071 271.754 69.379L271.731 48.8603C271.731 48.5132 271.983 48.0863 272.276 47.9911C274.292 47.3415 276.416 47.2355 278.442 47.7914C281.637 48.6668 283.718 51.365 283.73 54.673C283.747 59.32 279.809 62.4314 275.463 62.4406C274.891 62.4406 274.542 61.9093 274.498 61.4977C274.299 59.6548 276.258 60.6177 278.473 59.4967H278.474Z" fill="#045275"/>
<path d="M243.213 50.287C241.301 48.8419 238.711 49.3318 237.256 51.1823C235.552 53.3507 235.501 56.5081 237.184 58.6904C238.976 61.0155 242.362 61.0984 244.25 58.9407C244.666 58.4662 245.248 58.4662 245.681 58.7518C246.113 59.0375 246.327 59.7101 245.968 60.2C245.054 61.447 243.681 62.2379 242.166 62.5189C239.114 63.0825 236.233 61.7511 234.715 59.0083C232.926 55.7802 233.518 51.6261 236.233 49.0722C238.743 46.7103 242.668 46.6903 245.144 49.0538C246.851 50.6832 247.599 52.9883 247.4 55.3134C247.354 55.857 246.83 56.2517 246.288 56.2471L236.96 56.178C236.503 56.1749 236.354 55.493 236.362 55.2028C236.369 54.8834 236.47 54.1109 236.961 54.1078L245.201 54.0403C245.058 52.5859 244.448 51.2191 243.213 50.2854V50.287Z" fill="#045275"/>
<path d="M143.98 54.9847C143.98 59.2279 140.545 62.6679 136.308 62.6679C132.071 62.6679 128.636 59.2279 128.636 54.9847C128.636 50.7415 132.071 47.3015 136.308 47.3015C140.545 47.3015 143.98 50.7415 143.98 54.9847ZM141.748 54.977C141.748 51.9609 139.306 49.516 136.294 49.516C133.282 49.516 130.841 51.9609 130.841 54.977C130.841 57.9932 133.282 60.438 136.294 60.438C139.306 60.438 141.748 57.9932 141.748 54.977Z" fill="#045275"/>
<path d="M113.112 54.9878C113.112 59.2279 109.68 62.6633 105.447 62.6633C101.214 62.6633 97.7822 59.2264 97.7822 54.9878C97.7822 50.7492 101.214 47.3123 105.447 47.3123C109.68 47.3123 113.112 50.7492 113.112 54.9878ZM110.882 54.9801C110.882 51.967 108.443 49.5253 105.435 49.5253C102.426 49.5253 99.9875 51.967 99.9875 54.9801C99.9875 57.9932 102.426 60.435 105.435 60.435C108.443 60.435 110.882 57.9932 110.882 54.9801Z" fill="#045275"/>
<path d="M226.662 54.977C226.662 59.2187 223.228 62.6571 218.993 62.6571C214.757 62.6571 211.323 59.2187 211.323 54.977C211.323 50.7354 214.757 47.2969 218.993 47.2969C223.228 47.2969 226.662 50.7354 226.662 54.977ZM224.444 54.9724C224.444 51.9547 222.001 49.5084 218.988 49.5084C215.974 49.5084 213.532 51.9547 213.532 54.9724C213.532 57.9901 215.974 60.4365 218.988 60.4365C222.001 60.4365 224.444 57.9901 224.444 54.9724Z" fill="#045275"/>
<path d="M267.278 61.5238C265.685 62.6141 263.818 62.8414 261.943 62.4805C259.511 62.0121 257.581 60.0818 257.566 57.5616L257.537 52.9745C257.522 50.5189 259.06 48.4318 261.383 47.6747C263.719 46.913 266.362 47.32 268.132 49.0569C269.003 49.9123 269.584 51.1393 269.584 52.3648V61.8724C269.584 62.4498 268.738 62.6141 268.368 62.5681C267.852 62.502 267.442 62.2103 267.278 61.5253V61.5238ZM267.381 58.1514L267.378 52.7687C267.378 51.6092 266.763 50.6202 265.767 50.0551C264.421 49.2888 262.794 49.278 261.447 50.0366C260.415 50.6171 259.802 51.6292 259.8 52.8301L259.796 56.975C259.793 58.8839 261.099 60.2123 262.938 60.4288C264.771 60.6454 266.617 60.0019 267.384 58.1514H267.381Z" fill="#045275"/>
<path d="M178.728 51.8949L170.986 51.9363L170.974 61.4101C170.974 61.7557 170.83 62.0951 170.666 62.2578C170.431 62.4913 170.127 62.5189 169.753 62.5327C169.201 62.5512 168.694 62.198 168.694 61.5545L168.7 40.8961C168.7 40.4 169.189 40.0699 169.608 40.0699L180.189 40.0883C180.726 40.0883 181.048 40.6964 181.054 41.0742C181.063 41.6255 180.783 42.117 180.189 42.2337H170.968L171 49.7464L178.781 49.7694C179.263 49.9614 179.496 50.3392 179.513 50.7907C179.527 51.1592 179.333 51.8933 178.728 51.8964V51.8949Z" fill="#045275"/>
<path d="M185.6 69.1701C185.325 69.7614 185.067 70.0393 184.659 70.1422C184.169 70.2651 183.687 70.1653 183.38 69.766C183.089 69.2116 183.33 68.7063 183.574 68.1888L186.684 61.5883L180.925 49.3533C180.692 48.8572 180.487 48.3443 180.735 47.8206C180.941 47.3845 181.491 47.3046 181.899 47.3522C182.402 47.4106 182.677 47.7546 182.917 48.2675L187.886 58.8301L193.1 47.8129C193.336 47.3138 194.066 47.277 194.437 47.3829C194.775 47.4797 195.446 47.9757 195.189 48.5286L185.601 69.1701H185.6Z" fill="#045275"/>
<path d="M118.349 58.6428C120.333 60.9955 123.925 61.103 126.007 58.9407C126.481 58.4493 127.141 58.3725 127.647 58.8209C128.153 59.2694 128.033 59.9819 127.559 60.4672C126.368 61.6912 124.969 62.4084 123.256 62.6034C119.115 63.0764 115.43 60.2338 114.803 56.1841C114.176 52.1344 116.765 48.2798 120.839 47.4597C123.393 46.9468 125.983 47.707 127.677 49.6512C128.041 50.0674 127.978 50.7738 127.654 51.1178C127.331 51.4618 126.526 51.6476 126.135 51.1992C124.58 49.4162 122.173 48.9616 119.994 49.9967C118.51 50.7016 117.485 52.1882 117.159 53.5841C116.72 55.4669 117.113 57.1746 118.349 58.6412V58.6428Z" fill="#045275"/>
<path d="M156.335 62.5619C155.704 62.5512 155.212 62.1857 155.211 61.5514L155.194 45.5954L152.959 45.517C152.403 45.4971 152.157 44.9074 152.154 44.4589C152.151 43.9629 152.412 43.4361 152.987 43.4146L155.189 43.3317L155.206 40.3939C155.211 39.7136 155.625 39.2774 156.22 39.2114C156.77 39.1515 157.419 39.4402 157.433 40.1175L157.503 43.3379L159.88 43.407C160.437 43.4223 160.644 44.0166 160.647 44.4589C160.65 44.9826 160.376 45.5324 159.764 45.5462L157.499 45.6015L157.468 61.5576C157.468 62.198 157.037 62.5742 156.336 62.5619H156.335Z" fill="#045275"/>
<path d="M203.455 61.3134C202.219 62.6571 200.317 62.8906 198.667 62.4176C197.287 62.0214 196.281 60.9371 195.828 59.6072C195.603 58.9453 195.919 58.3418 196.483 58.1667C197.104 57.9748 197.675 58.2205 197.92 58.8778C198.345 60.0188 199.489 60.7022 200.682 60.4549C201.561 60.2722 202.162 59.6149 202.288 58.8731C202.447 57.9317 202.024 57.1163 201.18 56.674L198.282 55.1506C196.696 54.3167 195.831 52.8516 195.989 51.0779C196.132 49.4792 197.129 48.0279 198.819 47.5242C200.509 47.0205 202.277 47.3614 203.35 48.6376C203.81 49.1843 203.712 49.9583 203.238 50.31C202.668 50.7354 202.096 50.439 201.61 49.989C200.759 49.1997 199.497 49.3102 198.779 50.0336C198.003 50.8152 198.007 52.0853 198.883 52.8578C200.089 53.9205 202.427 54.4964 203.533 55.7403C204.885 57.2606 204.912 59.7301 203.455 61.3134Z" fill="#045275"/>
<path d="M148.438 61.7895C148.438 62.3869 147.759 62.5466 147.423 62.5665C147.087 62.5865 146.308 62.4022 146.307 61.8647L146.239 45.6061L143.836 45.471C143.312 45.4418 143.203 44.8705 143.206 44.4589C143.209 44.0474 143.324 43.4699 143.839 43.4423L146.17 43.3194L146.354 39.818C146.38 39.3174 147.067 39.196 147.432 39.2083C147.847 39.2221 148.408 39.4233 148.415 39.9516L148.465 43.3148L150.808 43.4131C151.386 43.4377 151.614 43.9675 151.618 44.4589C151.621 44.9074 151.397 45.4925 150.834 45.5078L148.477 45.5739L148.438 61.7895Z" fill="#045275"/>
<path d="M228.973 62.0167L228.924 45.666L226.723 45.5462C226.079 45.5109 225.848 44.9765 225.86 44.3852C225.872 43.794 226.145 43.4239 226.76 43.3993L228.915 43.3117L228.964 40.0867C228.973 39.5185 229.516 39.2375 229.971 39.2114C230.483 39.1807 231.082 39.4755 231.098 40.0867L231.181 43.3501L233.083 43.3701C233.776 43.3778 234.273 43.7172 234.331 44.3146C234.397 44.9934 234.008 45.5493 233.241 45.5754L231.144 45.646L231.112 61.8616C231.112 62.3439 230.523 62.5143 230.243 62.5481C229.919 62.5865 229.223 62.5358 228.974 62.0214L228.973 62.0167Z" fill="#045275"/>
<path d="M252.037 52.9606L251.906 61.857C251.898 62.3991 251.208 62.5573 250.809 62.5573C250.452 62.5573 249.746 62.3684 249.746 61.8125L249.739 48.0955C249.739 47.3906 250.634 47.2677 251.085 47.3476C251.815 47.4781 252.028 48.0801 251.982 48.8741C253.159 47.7054 254.821 47.0036 256.417 47.4275C257.061 47.5979 257.092 48.3443 256.928 48.7896C256.715 49.364 256.318 49.5606 255.601 49.5483C253.816 49.5176 252.064 51.0011 252.036 52.9606H252.037Z" fill="#045275"/>
<path d="M93.0206 52.999L92.8764 61.8555C92.8672 62.4191 92.2124 62.5834 91.7922 62.5681C91.4502 62.5558 90.7126 62.3684 90.7126 61.8094L90.7187 48.1201C90.7187 47.4444 91.6511 47.257 92.0636 47.3476C92.7491 47.4996 93.0451 48.0679 92.95 48.9156C94.1585 47.7945 95.577 47.1188 97.1688 47.3568C97.8191 47.4536 98.0844 48.0264 97.9831 48.5731C97.8697 49.1843 97.4709 49.559 96.7256 49.5345C94.847 49.4746 93.2 50.9427 93.0206 52.999Z" fill="#045275"/>
<path d="M209.267 61.7526C209.267 62.3991 208.546 62.5742 208.18 62.5742C207.73 62.5742 207.054 62.3208 207.054 61.6973L207.045 48.2383C207.045 47.6501 207.64 47.386 208.057 47.3276C208.474 47.2693 209.267 47.5319 209.267 48.1354V61.7526Z" fill="#045275"/>
<path d="M287.256 61.791C287.256 62.4114 286.556 62.5358 286.239 62.5496C285.9 62.5635 285.109 62.4037 285.109 61.8494L285.092 48.094C285.092 47.5442 285.745 47.3384 286.095 47.3246C286.489 47.3092 287.249 47.4843 287.249 48.0725L287.254 61.7895L287.256 61.791Z" fill="#045275"/>
<path d="M208.183 45.4126C208.814 45.4126 209.327 44.8997 209.327 44.267C209.327 43.6342 208.814 43.1213 208.183 43.1213C207.551 43.1213 207.039 43.6342 207.039 44.267C207.039 44.8997 207.551 45.4126 208.183 45.4126Z" fill="#045275"/>
<path d="M286.165 45.4034C286.79 45.4034 287.297 44.896 287.297 44.27C287.297 43.6441 286.79 43.1367 286.165 43.1367C285.54 43.1367 285.033 43.6441 285.033 44.27C285.033 44.896 285.54 45.4034 286.165 45.4034Z" fill="#045275"/>
</g>
<defs>
<clipPath id="clip0_115_615">
<rect width="291.988" height="86" fill="white"/>
</clipPath>
</defs>
</svg>
